<svg width="89" height="38" viewBox="0 0 89 38" fill="none" xmlns="http://www.w3.org/2000/svg">
<g filter="url(#filter0_dd_235_110)">
<path d="M38.0769 2H5.92308C5.14783 2 4.40433 2.30649 3.85615 2.85205C3.30797 3.39761 3 4.13755 3 4.90909V31.0909C3 31.8624 3.30797 32.6024 3.85615 33.1479C4.40433 33.6935 5.14783 34 5.92308 34H38.0769C38.8522 34 39.5957 33.6935 40.1438 33.1479C40.692 32.6024 41 31.8624 41 31.0909V4.90909C41 4.13755 40.692 3.39761 40.1438 2.85205C39.5957 2.30649 38.8522 2 38.0769 2ZM15.5692 21.2C15.8793 21.4315 16.0843 21.776 16.1392 22.1579C16.194 22.5398 16.0941 22.9277 15.8615 23.2364C15.629 23.545 15.2827 23.749 14.899 23.8036C14.5153 23.8581 14.1255 23.7587 13.8154 23.5273L7.96923 19.1636C7.78771 19.0281 7.64039 18.8525 7.53891 18.6505C7.43744 18.4485 7.38462 18.2258 7.38462 18C7.38462 17.7742 7.43744 17.5515 7.53891 17.3495C7.64039 17.1475 7.78771 16.9719 7.96923 16.8364L13.8154 12.4727C14.1255 12.2413 14.5153 12.1419 14.899 12.1964C15.2827 12.251 15.629 12.455 15.8615 12.7636C16.0941 13.0723 16.194 13.4602 16.1392 13.8421C16.0843 14.224 15.8793 14.5685 15.5692 14.8L11.2814 18L15.5692 21.2ZM26.328 8.21818L20.4818 28.5818C20.432 28.7687 20.3452 28.9439 20.2266 29.097C20.1079 29.2502 19.9598 29.3782 19.7908 29.4737C19.6218 29.5692 19.4354 29.6302 19.2425 29.6531C19.0496 29.6761 18.854 29.6605 18.6672 29.6073C18.4803 29.5541 18.3061 29.4644 18.1545 29.3433C18.0029 29.2223 17.8772 29.0725 17.7845 28.9025C17.6918 28.7325 17.6342 28.5458 17.6149 28.3534C17.5955 28.161 17.615 27.9667 17.672 27.7818L23.5182 7.41818C23.6305 7.05407 23.8819 6.74834 24.2183 6.5667C24.5548 6.38506 24.9493 6.342 25.3173 6.44676C25.6853 6.55153 25.9973 6.79577 26.1863 7.127C26.3752 7.45823 26.4261 7.85002 26.328 8.21818ZM36.0308 19.1636L30.1846 23.5273C29.8745 23.7587 29.4847 23.8581 29.101 23.8036C28.7173 23.749 28.371 23.545 28.1385 23.2364C27.9059 22.9277 27.806 22.5398 27.8608 22.1579C27.9157 21.776 28.1207 21.4315 28.4308 21.2L32.7186 18L28.4308 14.8C28.2772 14.6854 28.1479 14.5418 28.0501 14.3774C27.9523 14.2131 27.888 14.0312 27.8608 13.8421C27.8337 13.653 27.8442 13.4604 27.8919 13.2754C27.9395 13.0903 28.0233 12.9164 28.1385 12.7636C28.2536 12.6108 28.3979 12.4821 28.563 12.3848C28.7282 12.2874 28.911 12.2235 29.101 12.1964C29.291 12.1694 29.4845 12.1799 29.6704 12.2273C29.8563 12.2747 30.0311 12.3581 30.1846 12.4727L36.0308 16.8364C36.2123 16.9719 36.3596 17.1475 36.4611 17.3495C36.5626 17.5515 36.6154 17.7742 36.6154 18C36.6154 18.2258 36.5626 18.4485 36.4611 18.6505C36.3596 18.8525 36.2123 19.0281 36.0308 19.1636Z" fill="white"/>
</g>
<g clip-path="url(#clip0_235_110)">
<path d="M54.6307 23.9999L51.3011 12.3635H53.9887L55.9148 20.4487H56.0114L58.1364 12.3635H60.4375L62.5568 20.4658H62.6591L64.5852 12.3635H67.2727L63.9432 23.9999H61.5455L59.3296 16.3919H59.2387L57.0284 23.9999H54.6307ZM68.5895 23.9999V12.3635H73.1804C74.063 12.3635 74.8149 12.5321 75.4361 12.8692C76.0573 13.2025 76.5308 13.6666 76.8565 14.2612C77.1861 14.8522 77.3509 15.534 77.3509 16.3067C77.3509 17.0794 77.1842 17.7612 76.8509 18.3522C76.5175 18.9431 76.0346 19.4033 75.402 19.7328C74.7732 20.0624 74.0118 20.2272 73.1179 20.2272H70.1918V18.2556H72.7202C73.1937 18.2556 73.5838 18.1741 73.8906 18.0112C74.2012 17.8446 74.4323 17.6154 74.5838 17.3237C74.7391 17.0283 74.8168 16.6893 74.8168 16.3067C74.8168 15.9203 74.7391 15.5832 74.5838 15.2953C74.4323 15.0037 74.2012 14.7783 73.8906 14.6192C73.58 14.4563 73.1861 14.3749 72.7088 14.3749H71.0497V23.9999H68.5895ZM78.9489 23.9999V12.3635H81.4091V17.1647H86.4034V12.3635H88.858V23.9999H86.4034V19.1931H81.4091V23.9999H78.9489Z" fill="white"/>
</g>
<defs>
<filter id="filter0_dd_235_110" x="0" y="0" width="44" height="38" filterUnits="userSpaceOnUse" color-interpolation-filters="sRGB">
<feFlood flood-opacity="0" result="BackgroundImageFix"/>
<feColorMatrix in="SourceAlpha" type="matrix" values="0 0 0 0 0 0 0 0 0 0 0 0 0 0 0 0 0 0 127 0" result="hardAlpha"/>
<feOffset dy="1"/>
<feGaussianBlur stdDeviation="1"/>
<feColorMatrix type="matrix" values="0 0 0 0 0.0627451 0 0 0 0 0.0941176 0 0 0 0 0.156863 0 0 0 0.06 0"/>
<feBlend mode="normal" in2="BackgroundImageFix" result="effect1_dropShadow_235_110"/>
<feColorMatrix in="SourceAlpha" type="matrix" values="0 0 0 0 0 0 0 0 0 0 0 0 0 0 0 0 0 0 127 0" result="hardAlpha"/>
<feOffset dy="1"/>
<feGaussianBlur stdDeviation="1.5"/>
<feColorMatrix type="matrix" values="0 0 0 0 0.0627451 0 0 0 0 0.0941176 0 0 0 0 0.156863 0 0 0 0.1 0"/>
<feBlend mode="normal" in2="effect1_dropShadow_235_110" result="effect2_dropShadow_235_110"/>
<feBlend mode="normal" in="SourceGraphic" in2="effect2_dropShadow_235_110" result="shape"/>
</filter>
<clipPath id="clip0_235_110">
<rect width="38" height="12" fill="white" transform="translate(51 12)"/>
</clipPath>
</defs>
</svg>
